<svg width="32" height="32" viewBox="0 0 32 32" fill="none" xmlns="http://www.w3.org/2000/svg">
<path d="M10.6665 17.3333H21.3332M10.6665 17.3333V24C10.6665 26.5147 10.6665 27.7707 11.4478 28.552C12.2292 29.3333 13.4852 29.3333 15.9998 29.3333C18.5145 29.3333 19.7705 29.3333 20.5518 28.552C21.3332 27.7707 21.3332 26.5147 21.3332 24V17.3333M10.6665 17.3333C8.86362 16.9327 7.20792 16.0379 5.88491 14.7492C4.56189 13.4606 3.62384 11.829 3.17584 10.0373L2.6665 8M21.3332 17.3333C23.6132 17.3333 25.5332 19.04 25.7998 21.3067L26.6665 28.6667" stroke="#040B0D" stroke-width="2" stroke-linecap="round"/>
<path d="M15.9998 13.3337C18.9454 13.3337 21.3332 10.9458 21.3332 8.00033C21.3332 5.05481 18.9454 2.66699 15.9998 2.66699C13.0543 2.66699 10.6665 5.05481 10.6665 8.00033C10.6665 10.9458 13.0543 13.3337 15.9998 13.3337Z" stroke="#040B0D" stroke-width="2"/>
</svg>
