<svg width="121" height="22" viewBox="0 0 121 22" fill="none" xmlns="http://www.w3.org/2000/svg">
<path d="M12.574 21L5.028 10.43L12.112 0.28H16.088L8.71 10.85L8.766 9.856L16.69 21H12.574ZM0.0440002 21V0.28H3.782V21H0.0440002ZM3.25 12.054V8.736H6.554V12.054H3.25ZM21.2003 21V0.28H35.1303V3.318H24.8963V17.962H35.2703V21H21.2003ZM23.4543 11.914V8.876H33.7303V11.914H23.4543ZM41.3734 21V0.28H45.9094L52.4474 14.826H51.9294L58.3414 0.28H62.8774V21H59.3774V3.556H60.1894L53.6934 18.046H50.5574L43.9074 3.556H44.8734V21H41.3734ZM78.2946 21.266C76.3626 21.266 74.7806 20.958 73.5486 20.342C72.3166 19.7167 71.4019 18.7693 70.8046 17.5C70.2166 16.2307 69.9226 14.6253 69.9226 12.684V0.28H73.6746V13.048C73.6746 14.84 74.0526 16.142 74.8086 16.954C75.5646 17.7567 76.7266 18.158 78.2946 18.158C79.8626 18.158 81.0199 17.7567 81.7666 16.954C82.5226 16.142 82.9006 14.84 82.9006 13.048V0.28H86.5826V12.684C86.5826 14.6253 86.2886 16.2307 85.7006 17.5C85.1126 18.7693 84.2072 19.7167 82.9846 20.342C81.7619 20.958 80.1986 21.266 78.2946 21.266ZM117.064 21V0.28H120.802V21H117.064Z" fill="#040B0D"/>
<path d="M98.9597 21.196C98.3997 21.196 97.8211 21.182 97.2237 21.154C96.6357 21.1353 96.0337 21.1027 95.4177 21.056C94.8017 21.0093 94.1811 20.9487 93.5557 20.874V0.699999C94.1624 0.569332 94.8111 0.457332 95.5017 0.363999C96.2017 0.261333 96.9064 0.186666 97.6157 0.139998C98.3344 0.0839989 99.0344 0.0559993 99.7157 0.0559993C103.356 0.0559993 106.1 0.919332 107.948 2.646C109.805 4.36333 110.734 7.028 110.734 10.64C110.734 13.104 110.3 15.1153 109.432 16.674C108.564 18.2233 107.257 19.3667 105.512 20.104C103.766 20.832 101.582 21.196 98.9597 21.196ZM99.8837 18.116C101.442 18.116 102.74 17.8687 103.776 17.374C104.821 16.87 105.6 16.0673 106.114 14.966C106.627 13.8647 106.884 12.418 106.884 10.626C106.884 8.84333 106.627 7.40133 106.114 6.3C105.6 5.19867 104.826 4.396 103.79 3.892C102.763 3.37867 101.484 3.122 99.9537 3.122C99.5431 3.122 99.1044 3.14533 98.6377 3.192C98.1804 3.22933 97.7324 3.28533 97.2937 3.36V17.99C97.7137 18.0367 98.1291 18.0693 98.5397 18.088C98.9597 18.1067 99.4077 18.116 99.8837 18.116Z" fill="#24596A"/>
</svg>
